# File created by Blade
# Date/Time:  Wed Jan 21 16:02:01 2015
# Frame Rate: 120.000 fps
#------------------------------------------------------
:FULLY-SPECIFIED
:DEGREES
1865
root 17.750690 32.744430 -16.124006 -175.566038 0.758137 -178.544350
Spine 22.109893 0.411814 5.811267
Head 56.538305 -1.047580 -3.924232
LeftShoulder -18.330578 -13.771330 4.653333
LeftArm -38.967435 33.034742 -87.391219
LeftForeArm 3.628722 -0.000000 77.883063
LeftHand -6.926461 -0.000000 3.350337
LeftHandThumb1 -26.253704 0.000000 33.147579
RightShoulder -15.663596 -26.952761 -3.971119
RightArm 20.828761 -19.435470 33.424750
RightForeArm -26.558370 0.000000 102.447153
RightHand -2.564182 -0.000000 0.802122
RightHandThumb1 -24.326973 -0.000000 -32.862282
LeftUpLeg 13.080174 0.230386 -20.315840
LeftLeg 0.227982 -0.000000 -0.000000
LeftFoot -31.258402 19.123695 -12.126764
LeftToeBase 18.282715 -0.000000 -0.000000
RightUpLeg -18.905194 4.509018 20.155035
RightLeg -3.632797 -0.000000 0.000000
RightFoot 0.569719 -30.499145 -1.380552
RightToeBase 23.397024 -0.000000 -0.000000
1866
root 17.748572 32.748297 -16.126461 -175.576900 0.638975 -178.510043
Spine 22.238409 0.484046 5.938791
Head 56.624366 -1.173865 -3.895738
LeftShoulder -18.307546 -13.592946 4.652228
LeftArm -39.419783 33.490584 -87.557917
LeftForeArm 2.861334 -0.000000 79.191063
LeftHand -7.001658 -0.000000 3.560572
LeftHandThumb1 -26.253704 0.000000 33.147579
RightShoulder -15.636346 -27.166052 -4.025081
RightArm 21.156495 -21.422951 33.388002
RightForeArm -26.050537 -0.000000 102.103643
RightHand -2.690594 -0.000000 1.717330
RightHandThumb1 -24.326973 -0.000000 -32.862282
LeftUpLeg 13.106575 0.194861 -20.263103
LeftLeg 0.253212 -0.000000 -0.000000
LeftFoot -31.247744 19.069058 -12.132311
LeftToeBase 18.385972 -0.000000 -0.000000
RightUpLeg -18.904255 4.426279 20.170558
RightLeg -3.654669 -0.000000 0.000000
RightFoot 0.541444 -30.508390 -1.301089
RightToeBase 23.325185 -0.000000 -0.000000
1867
root 17.747897 32.750638 -16.125416 -175.555566 0.530762 -178.496732
Spine 22.328727 0.540773 6.010359
Head 56.685908 -1.234689 -3.861776
LeftShoulder -18.337521 -13.409113 4.687220
LeftArm -39.865365 33.970078 -87.752354
LeftForeArm 2.025146 -0.000000 80.478618
LeftHand -6.995171 -0.000000 4.205164
LeftHandThumb1 -26.253704 0.000000 33.147579
RightShoulder -15.620301 -27.462990 -4.086340
RightArm 21.537777 -23.336637 33.406203
RightForeArm -25.711682 -0.000000 101.697684
RightHand -2.650304 -0.000000 1.985772
RightHandThumb1 -24.326973 -0.000000 -32.862282
LeftUpLeg 13.087718 0.143592 -20.231207
LeftLeg 0.291687 -0.000000 -0.000000
LeftFoot -31.258157 19.033220 -12.123796
LeftToeBase 18.288187 -0.000000 -0.000000
RightUpLeg -18.946055 4.393070 20.169540
RightLeg -3.662180 -0.000000 0.000000
RightFoot 0.475014 -30.666046 -1.230058
RightToeBase 23.330097 -0.000000 -0.000000
1868
root 17.746211 32.754198 -16.133670 -175.592051 0.349728 -178.454539
Spine 22.455719 0.523568 6.143178
Head 56.752890 -1.320065 -3.894328
LeftShoulder -18.354873 -13.266614 4.707629
LeftArm -40.333609 34.436105 -87.993282
LeftForeArm 1.284380 -0.000000 81.706612
LeftHand -7.148988 0.000000 4.419752
LeftHandThumb1 -26.253704 0.000000 33.147579
RightShoulder -15.561830 -27.571606 -4.193411
RightArm 21.665437 -25.209698 33.563997
RightForeArm -25.279005 -0.000000 101.349707
RightHand -2.558452 -0.000000 2.744112
RightHandThumb1 -24.326973 -0.000000 -32.862282
LeftUpLeg 13.165219 0.031935 -20.172616
LeftLeg 0.309181 -0.000000 -0.000000
LeftFoot -31.267391 19.027615 -12.124930
LeftToeBase 18.254120 -0.000000 -0.000000
RightUpLeg -18.910745 4.217378 20.216832
RightLeg -3.714497 -0.000000 0.000000
RightFoot 0.430130 -30.700516 -1.175543
RightToeBase 23.205653 -0.000000 -0.000000
1869
root 17.748623 32.754995 -16.127790 -175.488039 0.361594 -178.486622
Spine 22.435407 0.810850 6.119250
Head 56.860431 -1.531449 -3.785847
LeftShoulder -18.308740 -13.089757 4.848519
LeftArm -40.755666 34.880538 -88.281098
LeftForeArm 0.686269 -0.000000 82.848685
LeftHand -7.253602 -0.000000 4.647154
LeftHandThumb1 -26.253704 0.000000 33.147579
RightShoulder -15.638475 -27.822031 -4.091484
RightArm 21.862907 -26.892994 33.665984
RightForeArm -25.029983 -0.000000 100.962123
RightHand -2.361820 -0.000000 3.294739
RightHandThumb1 -24.326973 -0.000000 -32.862282
LeftUpLeg 13.036192 0.057781 -20.190881
LeftLeg 0.343207 -0.000000 -0.000000
LeftFoot -31.262581 18.978126 -12.136761
LeftToeBase 18.203549 -0.000000 -0.000000
RightUpLeg -19.044436 4.351873 20.146570
RightLeg -3.662319 -0.000000 0.000000
RightFoot 0.388174 -30.814656 -1.125925
RightToeBase 23.183875 -0.000000 -0.000000
1870
root 17.747707 32.757429 -16.129086 -175.444254 0.291793 -178.458969
Spine 22.472059 0.959682 6.214082
Head 56.918391 -1.650256 -3.738763
LeftShoulder -18.314366 -12.871672 4.888070
LeftArm -41.103865 35.335131 -88.521262
LeftForeArm 0.182027 -0.000000 83.987127
LeftHand -7.492024 -0.000000 4.748774
LeftHandThumb1 -26.253704 0.000000 33.147579
RightShoulder -15.689026 -27.960216 -4.084205
RightArm 21.961773 -28.573705 33.831835
RightForeArm -24.727303 -0.000000 100.590925
RightHand -2.269147 -0.000000 3.685104
RightHandThumb1 -24.326973 -0.000000 -32.862282
LeftUpLeg 12.992114 0.022485 -20.152005
LeftLeg 0.380654 -0.000000 -0.000000
LeftFoot -31.278135 18.956550 -12.121274
LeftToeBase 18.394220 -0.000000 -0.000000
RightUpLeg -19.104219 4.345738 20.154561
RightLeg -3.649664 -0.000000 0.000000
RightFoot 0.328132 -30.897796 -1.039562
RightToeBase 23.174856 -0.000000 -0.000000
